<svg width="45" height="45" viewBox="0 0 45 45" fill="none" xmlns="http://www.w3.org/2000/svg">
<path d="M22.5003 0L27.1934 2.43083L32.4191 3.22284L34.7872 7.94801L38.5493 11.6603L37.6878 16.875L38.5493 22.0897L34.7872 25.802L32.4191 30.5272L27.1934 31.3192L22.5003 33.75L17.8071 31.3192L12.5814 30.5272L10.2133 25.802L6.45117 22.0897L7.31275 16.875L6.45117 11.6603L10.2133 7.94801L12.5814 3.22284L17.8071 2.43083L22.5003 0Z" fill="#053844"/>
<path d="M11.2503 33.1701V45L22.5003 42.1875L33.7503 45V33.1701L28.0743 34.0303L22.5002 36.9174L16.9261 34.0303L11.2503 33.1701Z" fill="#053844"/>
</svg>
