<svg width="45" height="45" viewBox="0 0 45 45" fill="none" xmlns="http://www.w3.org/2000/svg">
<path d="M23.0947 5.75693C22.7177 5.58102 22.2823 5.58102 21.9053 5.75693L0.811571 15.6007C0.303508 15.8378 -0.0151735 16.354 0.000556858 16.9145C0.0162872 17.4749 0.363423 17.9724 0.883985 18.1807L21.9777 26.6182C22.313 26.7523 22.687 26.7523 23.0223 26.6182L39.375 20.0771V36.5625C37.8217 36.5625 36.5625 37.8217 36.5625 39.375V45H45V39.375C45 37.8217 43.7408 36.5625 42.1875 36.5625V18.9521L44.116 18.1807C44.6366 17.9724 44.9837 17.4749 44.9995 16.9145C45.0152 16.354 44.6965 15.8378 44.1884 15.6007L23.0947 5.75693Z" fill="#053844"/>
<path d="M11.7438 25.402C11.3779 25.2648 10.9715 25.286 10.6219 25.4605C10.2724 25.635 10.0111 25.9471 9.9009 26.322L8.49465 31.1032C8.29 31.799 8.64809 32.5363 9.32149 32.8057L21.9777 37.8682C22.313 38.0023 22.687 38.0023 23.0223 37.8682L35.6785 32.8057C36.3519 32.5363 36.71 31.799 36.5054 31.1032L35.0991 26.322C34.9889 25.9471 34.7276 25.635 34.3781 25.4605C34.0285 25.286 33.6221 25.2648 33.2562 25.402L22.5 29.4356L11.7438 25.402Z" fill="#053844"/>
</svg>
