<svg width="45" height="45" viewBox="0 0 45 45" fill="none" xmlns="http://www.w3.org/2000/svg">
<path d="M45 12.8518C45 16.9311 43.0994 20.5665 40.1355 22.9208L36.4321 14.2798L44.8831 11.1107C44.9602 11.6801 45 12.2613 45 12.8518Z" fill="#053844"/>
<path d="M32.1482 25.7036C34.0128 25.7036 35.7847 25.3065 37.3838 24.5923L33.5762 15.7078L30.7202 8.56786L41.6486 4.19652C39.2981 1.61805 35.9121 0 32.1482 0C25.0504 0 19.2964 5.75394 19.2964 12.8518C19.2964 14.4525 19.589 15.9848 20.1237 17.3983L2.65435 31.9561C-0.678037 34.7331 -0.906608 39.772 2.16068 42.8393C5.22797 45.9066 10.2669 45.678 13.0439 42.3456L27.6017 24.8763C29.0152 25.411 30.5475 25.7036 32.1482 25.7036ZM28.4583 13.2478L26.7567 15.8003L29.0665 15.0304C29.3558 14.9339 29.6745 15.032 29.8597 15.2744C30.0448 15.5168 30.0555 15.85 29.8863 16.1038L28.1847 18.6563L30.4944 17.8864L30.946 19.2411L26.6621 20.669C26.3727 20.7655 26.054 20.6675 25.8689 20.4251C25.6837 20.1827 25.673 19.8494 25.8422 19.5956L27.5439 17.0432L25.2341 17.8131C24.9447 17.9095 24.6261 17.8115 24.4409 17.5691C24.2558 17.3267 24.2451 16.9935 24.4142 16.7397L26.1159 14.1872L23.8061 14.9571L23.3546 13.6024L27.6385 12.1744C27.9279 12.078 28.2465 12.176 28.4317 12.4184C28.6168 12.6608 28.6275 12.9941 28.4583 13.2478ZM7.87259 39.9834C6.29529 39.9834 5.01664 38.7047 5.01664 37.1274C5.01664 35.5501 6.29529 34.2715 7.87259 34.2715C9.44989 34.2715 10.7285 35.5501 10.7285 37.1274C10.7285 38.7047 9.44989 39.9834 7.87259 39.9834Z" fill="#053844"/>
</svg>
