<svg width="45" height="45" viewBox="0 0 45 45" fill="none" xmlns="http://www.w3.org/2000/svg">
<path d="M0 22.5C0 10.0736 10.0736 0 22.5 0C34.9264 0 45 10.0736 45 22.5C45 34.9264 34.9264 45 22.5 45C10.0736 45 0 34.9264 0 22.5ZM21.0937 3.02781C19.211 3.6036 17.338 5.33594 15.7858 8.24621C15.3833 9.00096 15.0113 9.8208 14.6748 10.6977C16.6581 11.14 18.817 11.4219 21.0937 11.5047V3.02781ZM11.9489 9.95467C12.3509 8.87443 12.8044 7.85986 13.3042 6.92268C13.8069 5.98022 14.368 5.0974 14.9829 4.29849C12.5706 5.29586 10.3997 6.75885 8.58221 8.57544C9.59888 9.09248 10.7271 9.55624 11.9489 9.95467ZM9.86752 21.0937C9.96959 18.0843 10.3974 15.223 11.0948 12.6346C9.4931 12.1135 8.015 11.4835 6.69504 10.759C4.51801 13.6849 3.13421 17.2358 2.86194 21.0937H9.86752ZM13.8057 13.3842C13.18 15.7119 12.7827 18.3178 12.6817 21.0937H21.0937V14.3188C18.5349 14.232 16.0793 13.9094 13.8057 13.3842ZM23.9062 14.3188V21.0937H32.3183C32.2173 18.3178 31.82 15.7119 31.1943 13.3842C28.9207 13.9094 26.465 14.232 23.9062 14.3188ZM12.6817 23.9062C12.7827 26.6822 13.18 29.2881 13.8057 31.6157C16.0793 31.0905 18.5349 30.768 21.0937 30.6811V23.9062H12.6817ZM23.9062 23.9062V30.6811C26.465 30.768 28.9207 31.0905 31.1943 31.6157C31.82 29.2881 32.2173 26.6822 32.3183 23.9062H23.9062ZM14.6748 34.3023C15.0113 35.1792 15.3833 35.999 15.7858 36.7537C17.338 39.664 19.211 41.3964 21.0937 41.9722V33.4953C18.817 33.5781 16.6581 33.8599 14.6748 34.3023ZM14.9829 40.7015C14.368 39.9026 13.8069 39.0197 13.3042 38.0773C12.8044 37.1401 12.3509 36.1255 11.9489 35.0453C10.7271 35.4437 9.59888 35.9075 8.58221 36.4245C10.3997 38.2411 12.5706 39.7041 14.9829 40.7015ZM11.0948 32.3654C10.3974 29.777 9.96959 26.9156 9.86752 23.9062H2.86194C3.13421 27.7641 4.51801 31.3151 6.69505 34.2409C8.015 33.5165 9.4931 32.8865 11.0948 32.3654ZM30.0171 40.7015C32.4294 39.7041 34.6003 38.2411 36.4178 36.4245C35.4011 35.9075 34.2728 35.4437 33.051 35.0453C32.6491 36.1255 32.1956 37.1401 31.6957 38.0773C31.1931 39.0197 30.632 39.9026 30.0171 40.7015ZM23.9062 33.4953V41.9722C25.789 41.3964 27.662 39.664 29.2141 36.7537C29.6167 35.999 29.9887 35.1792 30.3252 34.3023C28.3419 33.8599 26.183 33.5781 23.9062 33.4953ZM33.9051 32.3654C35.5069 32.8865 36.985 33.5165 38.3049 34.2409C40.482 31.3151 41.8658 27.7641 42.138 23.9062H35.1325C35.0304 26.9156 34.6026 29.777 33.9051 32.3654ZM42.138 21.0937C41.8658 17.2358 40.482 13.6849 38.3049 10.759C36.985 11.4835 35.5069 12.1135 33.9051 12.6346C34.6026 15.223 35.0304 18.0843 35.1325 21.0937H42.138ZM31.6957 6.92268C32.1956 7.85986 32.6491 8.87443 33.051 9.95467C34.2728 9.55624 35.4011 9.09248 36.4178 8.57543C34.6003 6.75885 32.4294 5.29586 30.0171 4.29848C30.632 5.0974 31.1931 5.98022 31.6957 6.92268ZM30.3252 10.6977C29.9887 9.8208 29.6167 9.00096 29.2141 8.24621C27.662 5.33594 25.789 3.6036 23.9062 3.02781V11.5047C26.183 11.4219 28.3419 11.14 30.3252 10.6977Z" fill="#053844"/>
</svg>
