<svg width="45" height="45" viewBox="0 0 45 45" fill="none" xmlns="http://www.w3.org/2000/svg">
<path d="M8.57884 2.78266C0.890388 11.6947 0.890388 26.1439 8.57884 35.0559C9.12801 35.6925 9.12801 36.7246 8.57884 37.3611C8.02966 37.9977 7.13927 37.9977 6.5901 37.3611C-2.1967 27.176 -2.1967 10.6626 6.5901 0.477429C7.13927 -0.159143 8.02966 -0.159143 8.57884 0.477429C9.12801 1.114 9.12801 2.14609 8.57884 2.78266ZM14.545 9.69836C10.1517 14.7909 10.1517 23.0476 14.545 28.1402C15.0942 28.7768 15.0942 29.8089 14.545 30.4454C13.9959 31.082 13.1055 31.082 12.5563 30.4454C7.06456 24.0797 7.06456 13.7588 12.5563 7.39313C13.1055 6.75655 13.9959 6.75655 14.545 7.39313C15.0942 8.0297 15.0942 9.06179 14.545 9.69836ZM30.455 7.39313C31.0041 6.75655 31.8945 6.75655 32.4437 7.39313C37.9354 13.7588 37.9354 24.0797 32.4437 30.4454C31.8945 31.082 31.0041 31.082 30.455 30.4454C29.9058 29.8089 29.9058 28.7768 30.455 28.1402C34.8484 23.0476 34.8484 14.7909 30.455 9.69836C29.9058 9.06179 29.9058 8.0297 30.455 7.39313ZM36.4212 0.477429C36.9703 -0.159142 37.8607 -0.159143 38.4099 0.477429C47.1967 10.6626 47.1967 27.176 38.4099 37.3611C37.8607 37.9977 36.9703 37.9977 36.4212 37.3611C35.872 36.7246 35.872 35.6925 36.4212 35.0559C44.1096 26.1439 44.1096 11.6947 36.4212 2.78266C35.872 2.14609 35.872 1.114 36.4212 0.477429Z" fill="#053844"/>
<path d="M16.8752 18.9193C16.8752 15.3183 19.3936 12.3991 22.5002 12.3991C25.6069 12.3991 28.1252 15.3183 28.1252 18.9193C28.1252 21.9574 26.3326 24.5102 23.9065 25.234V43.37C23.9065 44.2702 23.2769 45 22.5002 45C21.7236 45 21.094 44.2702 21.094 43.37V25.234C18.6679 24.5102 16.8752 21.9574 16.8752 18.9193Z" fill="#053844"/>
</svg>
